# xmcd CD database file
# Copyright (C) 1997 Ti Kan
# 
# Track frame offsets:
#     205
#     10780
#     20650
#     26850
#     34632
#     47215
#     61970
#     79420
#     89072
#     99770
#     113855
#     124152
#     130500
#     153357
# 
# Disc length: 2243 seconds
# 
# Revision: 1
# Processed by: cddbd v1.4b41PL1 Copyright (c) Steve Scherf et al.
# Submitted via: DiscPlay 4.0.3
# 
DISCID=b008c10e
DTITLE=Louvin Brothers - Live at New River Ranch
DYEAR=1900
DGENRE=
TTITLE0=Born Again
TTITLE1=When I Stop Dreaming
TTITLE2=Comedy
TTITLE3=In The Jailhouse Now
TTITLE4=The Family Who Prays
TTITLE5=Is That You, Myrtle?
TTITLE6=God Bless Her
TTITLE7=I Don't Believe You've Met My Baby
TTITLE8=Childish Love
TTITLE9=Just Rehearsing
TTITLE10=Where No One Stands Alone
TTITLE11=Guitar Instrumental
TTITLE12=There's A Hole In The Bottom Of The Sea
TTITLE13=Listen To The Mockingbird
EXTD=
EXTT0=
EXTT1=
EXTT2=
EXTT3=
EXTT4=
EXTT5=
EXTT6=
EXTT7=
EXTT8=
EXTT9=
EXTT10=
EXTT11=
EXTT12=
EXTT13=
PLAYORDER=
